<?xml version="1.0" encoding="UTF-8" standalone="no"?>
<svg xmlns="http://www.w3.org/2000/svg" xmlns:xlink="http://www.w3.org/1999/xlink" xmlns:sketch="http://www.bohemiancoding.com/sketch/ns" width="256px" height="192px" version="1.1" viewBox="0 0 115 93">
  <g fill="#F37043" clip-path="url(#a)">
    <path d="M22.2 15.67c0-3.66-2.05-6.41-6.05-6.41-4.05 0-6.05 2.75-6.05 6.4v13.48c0 3.6 2 6.35 6.05 6.35 4 0 6.05-2.76 6.05-6.35V15.67ZM16.15 44.8C6.18 44.81 0 38.31 0 29.49V15.26C0 6.36 6.19 0 16.15 0c9.96 0 16.1 6.37 16.1 15.26v14.23c0 8.82-6.13 15.32-16.1 15.32Zm30.49 30.97 3.76-13.88c.07-.24.4-.24.46 0l3.77 13.88c.04.15-.07.3-.23.3h-7.53a.24.24 0 0 1-.23-.3ZM56 48.96H45.43c-.43 0-.8.29-.92.7L33.19 90.71a.96.96 0 0 0 .92 1.23l7.34-.02c.43 0 .8-.29.92-.7l1.98-7.07c.12-.42.5-.7.92-.7h10.78c.43 0 .8.3.92.71l1.93 7.06c.12.42.49.7.92.71l7.34.02c.63 0 1.09-.6.92-1.22L56.9 49.68a.94.94 0 0 0-.91-.72ZM23.16 76.23a.96.96 0 0 0-.96.96v.13c0 3.6-2.05 6.35-6.05 6.35-4.05 0-6.05-2.75-6.05-6.35V64.1c0-3.65 2-6.4 6.05-6.4 4 0 6.05 2.75 6.05 6.4v.14c0 .53.43.97.96.97h8.13c.53 0 .96-.44.96-.97v-.54c0-8.9-6.13-15.26-16.1-15.26C6.2 48.43 0 54.8 0 63.7v13.99C0 86.5 6.19 93 16.15 93c9.97 0 16.1-6.5 16.1-15.32v-.49a.96.96 0 0 0-.96-.96h-8.13ZM66.66 1.9l-7.12 24.38c-.06.25-.4.25-.47 0L52.11 1.9a.95.95 0 0 0-.93-.74H37.85a.96.96 0 0 0-.95.96v40.96c0 .53.43.97.95.97h7.67c.53 0 .96-.44.96-.97V14.75c0-.28.4-.34.47-.07l8.57 28.77c.12.4.5.69.92.69h5.9c.43 0 .8-.29.92-.7l8.57-28.76c.07-.26.47-.21.47.07v28.33c0 .53.43.97.95.97h7.67c.53 0 .96-.44.96-.97V2.13a.96.96 0 0 0-.96-.97H67.6c-.44 0-.83.3-.93.73ZM115 57.69v-7.74a.96.96 0 0 0-.95-.97H73.3a.96.96 0 0 0-.95.97v7.74c0 .53.43.96.95.96h40.75c.52 0 .95-.43.95-.96ZM77.13 81.62c3.11 0 5.63 2.54 5.63 5.68a5.65 5.65 0 0 1-5.63 5.68 5.65 5.65 0 0 1-5.62-5.68 5.65 5.65 0 0 1 5.62-5.68Z"/>
  </g>
  <defs>
    <clipPath id="a">
      <path fill="#fff" d="M0 0h115v93H0z"/>
    </clipPath>
  </defs>
</svg>
